<svg xmlns="http://www.w3.org/2000/svg" viewBox="0 0 230 56">
<path fill="#FFFFFF" d="M145.6,46.5c0,1.3-0.4,2.3-1.1,3c-0.7,0.7-1.6,1.1-2.8,1.1s-2.1-0.4-2.7-1.1c-0.7-0.7-1-1.7-1-3V32.3  h-5.7v14.2c0,1.5,0.2,2.9,0.7,4s1.1,2.2,1.9,3c0.8,0.8,1.8,1.4,3,1.9c1.2,0.4,2.5,0.6,3.9,0.6s2.7-0.2,3.9-0.6c1.2-0.4,2.2-1,3-1.9  c0.8-0.8,1.4-1.8,1.9-3c0.5-1.2,0.7-2.5,0.7-4V32.3h-5.7L145.6,46.5L145.6,46.5z M122.1,43.6c-0.7,0.7-1.6,1-2.6,1H116v-7.3h3.5  c1.1,0,1.9,0.3,2.6,1c0.7,0.7,1,1.6,1,2.6S122.8,43,122.1,43.6L122.1,43.6z M126.3,34.9c-0.8-0.8-1.7-1.4-2.9-1.9  c-1.1-0.5-2.4-0.7-3.7-0.7h-9.4v23.4h5.6v-5.9h3.7c1.4,0,2.6-0.2,3.8-0.7s2.1-1.1,2.9-1.9c0.8-0.8,1.4-1.7,1.8-2.8  c0.4-1.1,0.6-2.2,0.6-3.4s-0.2-2.3-0.6-3.4C127.7,36.6,127.1,35.7,126.3,34.9L126.3,34.9z M89.2,55.7h16.2v-5.2H94.8v-4h10.6v-5.2  H94.8v-3.8h10.6v-5.2H89.2V55.7L89.2,55.7z M81.1,17.4c-0.9,0.7-2.1,1.1-3.5,1.1c-0.9,0-1.8-0.2-2.6-0.5c-0.8-0.3-1.4-0.8-2-1.4  c-0.6-0.6-1-1.3-1.3-2c-0.3-0.8-0.5-1.6-0.5-2.5c0-0.9,0.2-1.7,0.5-2.5s0.7-1.5,1.3-2.1c0.6-0.6,1.2-1.1,2-1.4  c0.8-0.3,1.6-0.5,2.6-0.5c1.3,0,2.4,0.3,3.3,0.9c0.9,0.6,1.6,1.4,2.2,2.5l4.9-3.1c-0.5-0.9-1.1-1.6-1.9-2.4  c-0.7-0.7-1.5-1.3-2.4-1.8c-0.9-0.5-1.9-0.9-2.9-1.2s-2.1-0.4-3.2-0.4c-1.7,0-3.3,0.3-4.8,0.9c-1.5,0.6-2.7,1.5-3.8,2.5  c-1.1,1.1-1.9,2.3-2.5,3.8c-0.6,1.5-0.9,3-0.9,4.8s0.3,3.2,0.9,4.7c0.6,1.5,1.4,2.7,2.4,3.8c1,1.1,2.3,1.9,3.8,2.6s3.1,0.9,4.9,0.9  c1.2,0,2.4-0.2,3.5-0.5c1.1-0.3,2.1-0.8,3-1.4c0.9-0.6,1.7-1.3,2.5-2.1c0.7-0.8,1.3-1.7,1.8-2.7L81.1,17.4L81.1,17.4z M113.5,9.4  c-0.6,0.6-1.5,0.9-2.6,0.9h-4.1V4.1h4.1c1.2,0,2.1,0.3,2.6,0.8c0.6,0.5,0.9,1.3,0.9,2.3C114.4,8.1,114.1,8.8,113.5,9.4  C113.5,9.4,113.2,10.1,112.7,10.7L112.7,10.7z M119.8,23.7l-4.4-8.4c1.2-0.7,2.1-1.6,2.8-2.8c0.7-1.2,1-2.6,1-4  c0-1.1-0.2-2.1-0.6-3.1c-0.4-1-1-1.8-1.7-2.5c-0.8-0.7-1.7-1.3-2.8-1.7c-1.1-0.4-2.3-0.6-3.8-0.6h-10.1v23.4h5.6v-7h4.4l3.3,7H119.8  L119.8,23.7z M224.8,46.7c-0.5,1.1-1.2,2-2.2,2.7c-0.9,0.7-2.1,1.1-3.5,1.1c-0.9,0-1.8-0.2-2.6-0.5c-0.8-0.3-1.4-0.8-2-1.4  c-0.6-0.6-1-1.3-1.3-2c-0.3-0.8-0.5-1.6-0.5-2.5c0-0.9,0.2-1.7,0.5-2.5s0.7-1.5,1.3-2.1c0.6-0.6,1.2-1.1,2-1.4  c0.8-0.3,1.6-0.5,2.6-0.5c1.3,0,2.4,0.3,3.3,0.9c0.9,0.6,1.6,1.4,2.2,2.5l4.9-3.1c-0.5-0.9-1.1-1.6-1.9-2.4  c-0.7-0.7-1.5-1.3-2.4-1.8c-0.9-0.5-1.9-0.9-2.9-1.2s-2.1-0.4-3.2-0.4c-1.7,0-3.3,0.3-4.8,0.9c-1.5,0.6-2.7,1.5-3.8,2.5  c-1.1,1.1-1.9,2.3-2.5,3.8c-0.6,1.5-0.9,3-0.9,4.8s0.3,3.2,0.9,4.7c0.6,1.5,1.4,2.7,2.4,3.8c1,1.1,2.3,1.9,3.8,2.6s3.1,0.9,4.9,0.9  c1.2,0,2.4-0.2,3.5-0.5c1.1-0.3,2.1-0.8,3-1.4c0.9-0.6,1.7-1.3,2.5-2.1c0.7-0.8,1.3-1.7,1.8-2.7L224.8,46.7L224.8,46.7z M168.1,50.2  c-0.5,0.4-1.3,0.6-2.4,0.6h-3.9v-4.5h3.9c1.2,0,2,0.2,2.4,0.6c0.5,0.4,0.7,1,0.7,1.6C168.8,49.2,168.6,49.7,168.1,50.2L168.1,50.2z   M168.4,42.1c-0.4,0.4-1.1,0.6-2.2,0.6h-4.4v-5.3h4.2c1.2,0,2.1,0.2,2.6,0.7s0.7,1.1,0.7,1.9C169.3,40.9,169,41.6,168.4,42.1  L168.4,42.1z M173.9,45.8c0.5-0.5,0.8-1,1.1-1.6c0.3-0.6,0.4-1.3,0.4-2c0-0.8-0.2-1.6-0.5-2.3c-0.4-0.7-0.8-1.3-1.4-1.8  c-0.6-0.5-1.3-0.9-2.2-1.2c-0.8-0.3-1.7-0.5-2.7-0.6c0.8-0.2,1.5-0.4,2.1-0.8c0.6-0.4,1.1-0.8,1.6-1.3c0.4-0.5,0.7-1.1,1-1.7  c0.2-0.6,0.4-1.3,0.4-2c0-1.2-0.2-2.1-0.7-3s-1-1.5-1.7-2s-1.5-0.8-2.4-1c-0.9-0.2-1.9-0.3-2.9-0.3h-10.2v30.4h10.8  c1.2,0,2.3-0.1,3.3-0.4c1-0.3,1.8-0.7,2.5-1.2c0.7-0.5,1.3-1.2,1.7-2c0.4-0.8,0.6-1.8,0.6-2.9c0-0.8-0.1-1.5-0.4-2.2  C174.5,46.7,174.2,46.2,173.9,45.8L173.9,45.8z M162.2,21.5c0.8-0.8,1.4-1.8,1.9-3c0.5-1.2,0.7-2.5,0.7-4V0.3h-5.7v14.2  c0,1.3-0.4,2.3-1.1,3c-0.7,0.7-1.6,1.1-2.8,1.1s-2.1-0.4-2.7-1.1c-0.7-0.7-1-1.7-1-3V0.3h-5.7v14.2c0,1.5,0.2,2.9,0.7,4  c0.5,1.2,1.1,2.2,1.9,3c0.8,0.8,1.8,1.4,3,1.9c1.2,0.4,2.5,0.6,3.9,0.6c1.5,0,2.7-0.2,3.9-0.6C160.4,22.9,161.4,22.3,162.2,21.5z   M78.5,42.7c-0.6,0.6-1.5,0.9-2.6,0.9h-4.1v-6.2h4.1c1.2,0,2.1,0.3,2.6,0.8c0.6,0.5,0.9,1.3,0.9,2.3C79.3,41.4,79,42.1,78.5,42.7z   M84,44.4c0.7-1.2,1-2.6,1-4c0-1.1-0.2-2.1-0.6-3.1c-0.4-1-1-1.8-1.7-2.5C82,34,81.1,33.4,80,33c-1.1-0.4-2.3-0.6-3.8-0.6H66.2v23.4  h5.6v-7h4.4l3.3,7h6.2l-4.4-8.4C82.4,46.5,83.3,45.6,84,44.4L84,44.4z M124.5,20.5c1.1,1.1,2.3,1.9,3.8,2.6c1.5,0.6,3.1,0.9,4.9,0.9  c1.2,0,2.4-0.2,3.5-0.5c1.1-0.3,2.1-0.8,3-1.4s1.7-1.3,2.5-2.1c0.7-0.8,1.3-1.7,1.8-2.7l-5.2-2.8c-0.5,1.1-1.2,2-2.2,2.7  c-0.9,0.7-2.1,1.1-3.5,1.1c-0.9,0-1.8-0.2-2.6-0.5c-0.8-0.3-1.4-0.8-2-1.4c-0.6-0.6-1-1.3-1.3-2c-0.3-0.8-0.5-1.6-0.5-2.5  c0-0.9,0.2-1.7,0.5-2.5c0.3-0.8,0.7-1.5,1.3-2.1s1.2-1.1,2-1.4c0.8-0.3,1.6-0.5,2.6-0.5c1.3,0,2.4,0.3,3.3,0.9  c0.9,0.6,1.6,1.4,2.2,2.5l4.9-3.1c-0.5-0.9-1.1-1.6-1.9-2.4c-0.7-0.7-1.5-1.3-2.4-1.8c-0.9-0.5-1.9-0.9-2.9-1.2  c-1-0.3-2.1-0.4-3.2-0.4c-1.7,0-3.3,0.3-4.8,0.9c-1.5,0.6-2.7,1.5-3.8,2.5s-1.9,2.3-2.5,3.8c-0.6,1.5-0.9,3-0.9,4.8s0.3,3.2,0.9,4.7  C122.6,18.1,123.4,19.4,124.5,20.5L124.5,20.5z M197.3,7.5l2.8,7.8h-5.5L197.3,7.5z M192.8,20.2h9l1.2,3.5h5.7L200,0.3h-5.4  l-8.7,23.4h5.6L192.8,20.2L192.8,20.2z M184.4,18.3h-10.2v-18h-5.6v23.4h15.8V18.3L184.4,18.3z M90.8,23.7h5.6V0.3h-5.6V23.7z   M216,5.4h4.1c1.2,0,2.1,0.3,2.6,0.8c0.6,0.5,0.9,1.3,0.9,2.3c0,0.9-0.3,1.6-0.9,2.2c-0.6,0.6-1.5,0.9-2.6,0.9H216V5.4z M216,16.7  h4.4l3.3,7h6.2l-4.4-8.4c1.2-0.7,2.1-1.6,2.8-2.8c0.7-1.2,1-2.6,1-4c0-1.1-0.2-2.1-0.6-3.1c-0.4-1-1-1.8-1.7-2.5  c-0.8-0.7-1.7-1.3-2.8-1.7s-2.3-0.6-3.8-0.6h-10.1v23.4h5.6L216,16.7L216,16.7z"/>
<path fill="#5EB265" d="M35.8,30.6c-5.7,0-10.4-4.7-10.4-10.4C31.1,20.2,35.8,24.8,35.8,30.6L35.8,30.6z M25.3,15.2v5h-5  c0,8.1,6.2,14.7,14.2,15.3c-1.8,3.2-5.2,5.5-9.2,5.5v5c8.5,0,15.4-6.9,15.4-15.4S33.8,15.2,25.3,15.2z M25.3,50.9v-5  C14.1,45.9,5,36.8,5,25.7S14.1,5.4,25.3,5.4v4.8c-8.5,0-15.4,6.9-15.4,15.4S16.8,41,25.3,41v-5c-5.8,0-10.4-4.7-10.4-10.4  s4.7-10.4,10.4-10.4v-5c11.2,0,20.3,9.1,20.3,20.3S36.6,50.9,25.3,50.9L25.3,50.9z M25.3,5.4v-5C11.4,0.4,0,11.7,0,25.7  s11.4,25.2,25.3,25.2v4.8c13.9,0,25.2-11.3,25.2-25.2S39.2,5.4,25.3,5.4L25.3,5.4z"/>
</svg>
